<svg width="58" height="58" fill="none" xmlns="http://www.w3.org/2000/svg"><circle cx="29" cy="29" r="29" fill="#383838"/><mask id="a" maskUnits="userSpaceOnUse" x="11" y="11" width="36" height="36"><g clip-path="url(#clip0)"><path d="M40.873 30.542c-.582-.735-.416-1.062 0-1.719.007-.008 4.812-6.646 5.306-8.898l.003-.002c.246-.82 0-1.423-1.189-1.423h-3.936c-1.002 0-1.464.517-1.712 1.096 0 0-2.003 4.797-4.838 7.907-.915.898-1.338 1.186-1.838 1.186-.246 0-.628-.288-.628-1.108v-7.657c0-.985-.281-1.424-1.11-1.424h-6.19c-.628 0-1.002.459-1.002.887 0 .933 1.418 1.147 1.565 3.772v5.696c0 1.247-.226 1.477-.729 1.477-1.338 0-4.585-4.817-6.51-10.329-.389-1.07-.768-1.502-1.777-1.502H12.35c-1.123 0-1.35.518-1.35 1.097 0 1.023 1.338 6.11 6.222 12.83 3.255 4.587 7.839 7.072 12.009 7.072 2.506 0 2.813-.552 2.813-1.502 0-4.383-.227-4.796 1.029-4.796.581 0 1.584.288 3.923 2.5 2.675 2.623 3.114 3.798 4.611 3.798h3.937c1.122 0 1.69-.552 1.363-1.641-.748-2.29-5.806-7.002-6.034-7.317z" fill="#000"/></g></mask><g mask="url(#a)"><path fill="#fff" d="M6 7h47v40H6z"/></g><defs><clipPath id="clip0"><path fill="#fff" transform="translate(11 11)" d="M0 0h36v36H0z"/></clipPath></defs></svg>